<svg version="1.1" xmlns="http://www.w3.org/2000/svg" xmlns:xlink="http://www.w3.org/1999/xlink" width="512.000000pt" height="512.000000pt" viewBox="0,0,256,256"><g fill="#ffffff" fill-rule="nonzero" stroke="none" stroke-width="1" stroke-linecap="butt" stroke-linejoin="miter" stroke-miterlimit="10" stroke-dasharray="" stroke-dashoffset="0" font-family="none" font-weight="none" font-size="none" text-anchor="none" style="mix-blend-mode: normal"><g transform="translate(0.02012,0) scale(0.5,0.5)"><g transform="translate(0,512) scale(0.1,-0.1)"><path d="M2040,4249c-35,-15 -219,-193 -803,-777c-430,-429 -770,-777 -785,-802c-34,-56 -37,-154 -8,-210c10,-19 361,-378 780,-798c586,-587 772,-768 810,-787l50,-25h1026c989,0 1030,1 1104,20c213,54 382,212 453,423l28,82v1185v1185l-28,82c-71,211 -240,369 -453,423c-74,19 -114,20 -1103,20c-1008,0 -1027,-1 -1071,-21zM4145,3809c30,-15 62,-42 80,-68l30,-43v-1138v-1138l-30,-43c-18,-26 -50,-53 -80,-68l-49,-26l-931,-3l-930,-2l-640,640l-640,640l640,640l640,640l930,-2l931,-3z"></path><path d="M2278,3406c-91,-33 -139,-94 -146,-186c-8,-105 -4,-110 281,-397l261,-263l-261,-262c-285,-288 -289,-293 -281,-399c10,-134 134,-221 271,-189c50,12 63,24 317,276l265,264l250,-251c138,-138 266,-259 285,-269c111,-57 245,-17 300,91c25,48 27,146 4,192c-9,18 -131,148 -272,290l-257,257l257,258c141,141 263,271 272,289c21,42 21,144 0,186c-58,114 -189,157 -302,98c-20,-11 -149,-132 -287,-270l-250,-251l-260,260c-211,210 -268,262 -304,275c-53,18 -94,19 -143,1z"></path></g></g></g></svg>